# xmcd CD database file
#
# Track frame offsets:
#	150
#	15601
#	31114
#	54264
#	63976
#	83713
#	106264
#	118241
#	138067
#	159956
#	174533
#	185572
#	204961
#	219687
#
# Disc length: 3119 seconds
#
# Revision: 1
# Processed by: cddbd v1.5.1PL0 Copyright (c) Steve Scherf et al.
# Submitted via: CDex 1.51
#
DISCID=b10c2d0e
DTITLE=Sojiro - Heart Obtained  Vol 09
DYEAR=1991
DGENRE=New Age
TTITLE0=Edelweiss
TTITLE1=Greensleeves
TTITLE2=A condor flies
TTITLE3=Yes TADEI
TTITLE4=On that Direction of Rainbow
TTITLE5=Concerto of Fallen Leaves
TTITLE6=Try TOU - and RIMEMBA
TTITLE7=It is Wish to Star
TTITLE8=Memory
TTITLE9=S of SORUBE-GU
TTITLE10=TOROIMERAI
TTITLE11=Aranjues of Love
TTITLE12=Largo (Handel)
TTITLE13=Fantasy Overture (Tschaikovsky) Romeo and Juliet
EXTD=YEAR: 1991
EXTT0=
EXTT1=
EXTT2=
EXTT3=
EXTT4=
EXTT5=
EXTT6=
EXTT7=
EXTT8=
EXTT9=
EXTT10=
EXTT11=
EXTT12=
EXTT13=
PLAYORDER=
